<mxfile host="app.diagrams.net" agent="Mozilla/5.0 (Windows NT 10.0; Win64; x64) AppleWebKit/537.36 (KHTML, like Gecko) Chrome/134.0.0.0 Safari/537.36" version="26.1.3">
  <diagram id="R2lEEEUBdFMjLlhIrx00" name="Page-1">
    <mxGraphModel dx="1303" dy="1764" grid="1" gridSize="10" guides="1" tooltips="1" connect="1" arrows="1" fold="1" page="1" pageScale="1" pageWidth="850" pageHeight="1100" math="0" shadow="0" extFonts="Permanent Marker^https://fonts.googleapis.com/css?family=Permanent+Marker">
      <root>
        <mxCell id="0" />
        <mxCell id="1" parent="0" />
        <mxCell id="fVzCkQStNyUe_EZkDvuO-29" style="edgeStyle=orthogonalEdgeStyle;rounded=0;orthogonalLoop=1;jettySize=auto;html=1;exitX=0;exitY=0.5;exitDx=0;exitDy=0;entryX=0.5;entryY=1;entryDx=0;entryDy=0;" parent="1" source="fVzCkQStNyUe_EZkDvuO-26" edge="1">
          <mxGeometry relative="1" as="geometry">
            <mxPoint x="50" y="30" as="targetPoint" />
          </mxGeometry>
        </mxCell>
        <mxCell id="fVzCkQStNyUe_EZkDvuO-31" style="edgeStyle=orthogonalEdgeStyle;rounded=0;orthogonalLoop=1;jettySize=auto;html=1;entryX=0.5;entryY=1;entryDx=0;entryDy=0;" parent="1" source="fVzCkQStNyUe_EZkDvuO-26" target="fVzCkQStNyUe_EZkDvuO-30" edge="1">
          <mxGeometry relative="1" as="geometry" />
        </mxCell>
        <mxCell id="fVzCkQStNyUe_EZkDvuO-36" style="edgeStyle=orthogonalEdgeStyle;rounded=0;orthogonalLoop=1;jettySize=auto;html=1;exitX=0.5;exitY=0;exitDx=0;exitDy=0;entryX=0.5;entryY=1;entryDx=0;entryDy=0;" parent="1" source="fVzCkQStNyUe_EZkDvuO-26" target="fVzCkQStNyUe_EZkDvuO-32" edge="1">
          <mxGeometry relative="1" as="geometry" />
        </mxCell>
        <mxCell id="fVzCkQStNyUe_EZkDvuO-37" style="edgeStyle=orthogonalEdgeStyle;rounded=0;orthogonalLoop=1;jettySize=auto;html=1;exitX=0.5;exitY=0;exitDx=0;exitDy=0;" parent="1" source="fVzCkQStNyUe_EZkDvuO-26" edge="1">
          <mxGeometry relative="1" as="geometry">
            <mxPoint x="200" y="-40" as="targetPoint" />
          </mxGeometry>
        </mxCell>
        <mxCell id="fVzCkQStNyUe_EZkDvuO-38" style="edgeStyle=orthogonalEdgeStyle;rounded=0;orthogonalLoop=1;jettySize=auto;html=1;exitX=0.5;exitY=0;exitDx=0;exitDy=0;entryX=0.5;entryY=1;entryDx=0;entryDy=0;" parent="1" source="fVzCkQStNyUe_EZkDvuO-26" edge="1">
          <mxGeometry relative="1" as="geometry">
            <mxPoint x="300" y="-10" as="targetPoint" />
          </mxGeometry>
        </mxCell>
        <mxCell id="fVzCkQStNyUe_EZkDvuO-41" style="edgeStyle=orthogonalEdgeStyle;rounded=0;orthogonalLoop=1;jettySize=auto;html=1;exitX=1;exitY=0.5;exitDx=0;exitDy=0;entryX=0.5;entryY=1;entryDx=0;entryDy=0;" parent="1" source="fVzCkQStNyUe_EZkDvuO-26" target="fVzCkQStNyUe_EZkDvuO-40" edge="1">
          <mxGeometry relative="1" as="geometry" />
        </mxCell>
        <mxCell id="4t_6z5Arf-wFoB3xDvHp-23" style="edgeStyle=orthogonalEdgeStyle;rounded=0;orthogonalLoop=1;jettySize=auto;html=1;exitX=0.5;exitY=0;exitDx=0;exitDy=0;" edge="1" parent="1" source="fVzCkQStNyUe_EZkDvuO-26" target="4t_6z5Arf-wFoB3xDvHp-22">
          <mxGeometry relative="1" as="geometry" />
        </mxCell>
        <mxCell id="fVzCkQStNyUe_EZkDvuO-26" value="CANDIDATE" style="whiteSpace=wrap;html=1;align=center;" parent="1" vertex="1">
          <mxGeometry x="80" y="40" width="220" height="40" as="geometry" />
        </mxCell>
        <mxCell id="fVzCkQStNyUe_EZkDvuO-30" value="Cname" style="ellipse;whiteSpace=wrap;html=1;align=center;" parent="1" vertex="1">
          <mxGeometry x="50" y="-50" width="100" height="40" as="geometry" />
        </mxCell>
        <mxCell id="fVzCkQStNyUe_EZkDvuO-32" value="Dob" style="ellipse;whiteSpace=wrap;html=1;align=center;" parent="1" vertex="1">
          <mxGeometry x="140" y="-20" width="100" height="40" as="geometry" />
        </mxCell>
        <mxCell id="fVzCkQStNyUe_EZkDvuO-40" value="Cskills" style="ellipse;shape=doubleEllipse;margin=3;whiteSpace=wrap;html=1;align=center;" parent="1" vertex="1">
          <mxGeometry x="320" width="100" height="40" as="geometry" />
        </mxCell>
        <mxCell id="fVzCkQStNyUe_EZkDvuO-55" style="edgeStyle=orthogonalEdgeStyle;rounded=0;orthogonalLoop=1;jettySize=auto;html=1;exitX=0;exitY=0.25;exitDx=0;exitDy=0;entryX=0.5;entryY=1;entryDx=0;entryDy=0;" parent="1" source="fVzCkQStNyUe_EZkDvuO-42" target="fVzCkQStNyUe_EZkDvuO-47" edge="1">
          <mxGeometry relative="1" as="geometry" />
        </mxCell>
        <mxCell id="fVzCkQStNyUe_EZkDvuO-57" style="edgeStyle=orthogonalEdgeStyle;rounded=0;orthogonalLoop=1;jettySize=auto;html=1;exitX=0.5;exitY=0;exitDx=0;exitDy=0;entryX=0.5;entryY=1;entryDx=0;entryDy=0;" parent="1" source="fVzCkQStNyUe_EZkDvuO-42" target="fVzCkQStNyUe_EZkDvuO-44" edge="1">
          <mxGeometry relative="1" as="geometry">
            <mxPoint x="670" as="targetPoint" />
            <Array as="points">
              <mxPoint x="700" y="20" />
              <mxPoint x="671" y="20" />
              <mxPoint x="671" />
              <mxPoint x="660" />
            </Array>
          </mxGeometry>
        </mxCell>
        <mxCell id="fVzCkQStNyUe_EZkDvuO-58" style="edgeStyle=orthogonalEdgeStyle;rounded=0;orthogonalLoop=1;jettySize=auto;html=1;exitX=0.5;exitY=0;exitDx=0;exitDy=0;entryX=0.5;entryY=1;entryDx=0;entryDy=0;" parent="1" source="fVzCkQStNyUe_EZkDvuO-42" target="fVzCkQStNyUe_EZkDvuO-52" edge="1">
          <mxGeometry relative="1" as="geometry" />
        </mxCell>
        <mxCell id="fVzCkQStNyUe_EZkDvuO-59" style="edgeStyle=orthogonalEdgeStyle;rounded=0;orthogonalLoop=1;jettySize=auto;html=1;exitX=0.5;exitY=0;exitDx=0;exitDy=0;entryX=0.5;entryY=1;entryDx=0;entryDy=0;" parent="1" source="fVzCkQStNyUe_EZkDvuO-42" target="fVzCkQStNyUe_EZkDvuO-53" edge="1">
          <mxGeometry relative="1" as="geometry" />
        </mxCell>
        <mxCell id="fVzCkQStNyUe_EZkDvuO-60" style="edgeStyle=orthogonalEdgeStyle;rounded=0;orthogonalLoop=1;jettySize=auto;html=1;exitX=0.5;exitY=0;exitDx=0;exitDy=0;entryX=0;entryY=1;entryDx=0;entryDy=0;" parent="1" source="fVzCkQStNyUe_EZkDvuO-42" target="fVzCkQStNyUe_EZkDvuO-54" edge="1">
          <mxGeometry relative="1" as="geometry" />
        </mxCell>
        <mxCell id="4t_6z5Arf-wFoB3xDvHp-29" style="edgeStyle=orthogonalEdgeStyle;rounded=0;orthogonalLoop=1;jettySize=auto;html=1;exitX=0.5;exitY=0;exitDx=0;exitDy=0;entryX=0.5;entryY=1;entryDx=0;entryDy=0;" edge="1" parent="1" source="fVzCkQStNyUe_EZkDvuO-42" target="4t_6z5Arf-wFoB3xDvHp-28">
          <mxGeometry relative="1" as="geometry" />
        </mxCell>
        <mxCell id="4t_6z5Arf-wFoB3xDvHp-30" style="edgeStyle=orthogonalEdgeStyle;rounded=0;orthogonalLoop=1;jettySize=auto;html=1;exitX=0.5;exitY=0;exitDx=0;exitDy=0;entryX=0.5;entryY=1;entryDx=0;entryDy=0;" edge="1" parent="1" source="fVzCkQStNyUe_EZkDvuO-42" target="4t_6z5Arf-wFoB3xDvHp-27">
          <mxGeometry relative="1" as="geometry" />
        </mxCell>
        <mxCell id="fVzCkQStNyUe_EZkDvuO-42" value="JOB" style="whiteSpace=wrap;html=1;align=center;" parent="1" vertex="1">
          <mxGeometry x="590" y="40" width="220" height="40" as="geometry" />
        </mxCell>
        <mxCell id="fVzCkQStNyUe_EZkDvuO-44" value="Jname" style="ellipse;whiteSpace=wrap;html=1;align=center;" parent="1" vertex="1">
          <mxGeometry x="610" y="-60" width="100" height="40" as="geometry" />
        </mxCell>
        <mxCell id="fVzCkQStNyUe_EZkDvuO-47" value="Jid" style="ellipse;whiteSpace=wrap;html=1;align=center;fontStyle=4;" parent="1" vertex="1">
          <mxGeometry x="540" y="-20" width="100" height="40" as="geometry" />
        </mxCell>
        <mxCell id="fVzCkQStNyUe_EZkDvuO-48" value="Cid" style="ellipse;whiteSpace=wrap;html=1;align=center;fontStyle=4;" parent="1" vertex="1">
          <mxGeometry y="-10" width="100" height="40" as="geometry" />
        </mxCell>
        <mxCell id="fVzCkQStNyUe_EZkDvuO-50" style="edgeStyle=orthogonalEdgeStyle;rounded=0;orthogonalLoop=1;jettySize=auto;html=1;exitX=0.5;exitY=1;exitDx=0;exitDy=0;" parent="1" source="fVzCkQStNyUe_EZkDvuO-49" edge="1">
          <mxGeometry relative="1" as="geometry">
            <mxPoint x="200.33333333333348" y="-39.666666666666515" as="targetPoint" />
          </mxGeometry>
        </mxCell>
        <mxCell id="fVzCkQStNyUe_EZkDvuO-49" value="Cdegree" style="ellipse;shape=doubleEllipse;margin=3;whiteSpace=wrap;html=1;align=center;" parent="1" vertex="1">
          <mxGeometry x="150" y="-80" width="100" height="40" as="geometry" />
        </mxCell>
        <mxCell id="fVzCkQStNyUe_EZkDvuO-51" value="Cmajor" style="ellipse;shape=doubleEllipse;margin=3;whiteSpace=wrap;html=1;align=center;" parent="1" vertex="1">
          <mxGeometry x="250" y="-50" width="100" height="40" as="geometry" />
        </mxCell>
        <mxCell id="fVzCkQStNyUe_EZkDvuO-52" value="Jdegree" style="ellipse;shape=doubleEllipse;margin=3;whiteSpace=wrap;html=1;align=center;" parent="1" vertex="1">
          <mxGeometry x="670" y="-100" width="100" height="40" as="geometry" />
        </mxCell>
        <mxCell id="fVzCkQStNyUe_EZkDvuO-53" value="Jmajor" style="ellipse;shape=doubleEllipse;margin=3;whiteSpace=wrap;html=1;align=center;" parent="1" vertex="1">
          <mxGeometry x="720" y="-60" width="100" height="40" as="geometry" />
        </mxCell>
        <mxCell id="fVzCkQStNyUe_EZkDvuO-54" value="Jskills" style="ellipse;shape=doubleEllipse;margin=3;whiteSpace=wrap;html=1;align=center;" parent="1" vertex="1">
          <mxGeometry x="780" y="-20" width="100" height="40" as="geometry" />
        </mxCell>
        <mxCell id="4t_6z5Arf-wFoB3xDvHp-8" style="edgeStyle=orthogonalEdgeStyle;rounded=0;orthogonalLoop=1;jettySize=auto;html=1;exitX=0.5;exitY=1;exitDx=0;exitDy=0;" edge="1" parent="1" source="fVzCkQStNyUe_EZkDvuO-61" target="4t_6z5Arf-wFoB3xDvHp-1">
          <mxGeometry relative="1" as="geometry" />
        </mxCell>
        <mxCell id="4t_6z5Arf-wFoB3xDvHp-9" style="edgeStyle=orthogonalEdgeStyle;rounded=0;orthogonalLoop=1;jettySize=auto;html=1;exitX=0.5;exitY=1;exitDx=0;exitDy=0;" edge="1" parent="1" source="fVzCkQStNyUe_EZkDvuO-61" target="4t_6z5Arf-wFoB3xDvHp-7">
          <mxGeometry relative="1" as="geometry" />
        </mxCell>
        <mxCell id="4t_6z5Arf-wFoB3xDvHp-10" style="edgeStyle=orthogonalEdgeStyle;rounded=0;orthogonalLoop=1;jettySize=auto;html=1;exitX=0.5;exitY=1;exitDx=0;exitDy=0;entryX=0.5;entryY=0;entryDx=0;entryDy=0;" edge="1" parent="1" source="fVzCkQStNyUe_EZkDvuO-61" target="4t_6z5Arf-wFoB3xDvHp-6">
          <mxGeometry relative="1" as="geometry" />
        </mxCell>
        <mxCell id="4t_6z5Arf-wFoB3xDvHp-12" style="edgeStyle=orthogonalEdgeStyle;rounded=0;orthogonalLoop=1;jettySize=auto;html=1;exitX=0.5;exitY=1;exitDx=0;exitDy=0;" edge="1" parent="1" source="fVzCkQStNyUe_EZkDvuO-61" target="4t_6z5Arf-wFoB3xDvHp-11">
          <mxGeometry relative="1" as="geometry" />
        </mxCell>
        <mxCell id="fVzCkQStNyUe_EZkDvuO-61" value="APPLICATION" style="whiteSpace=wrap;html=1;align=center;" parent="1" vertex="1">
          <mxGeometry x="80" y="380" width="220" height="40" as="geometry" />
        </mxCell>
        <mxCell id="4t_6z5Arf-wFoB3xDvHp-16" style="edgeStyle=orthogonalEdgeStyle;rounded=0;orthogonalLoop=1;jettySize=auto;html=1;exitX=0.5;exitY=1;exitDx=0;exitDy=0;entryX=0.5;entryY=0;entryDx=0;entryDy=0;" edge="1" parent="1" source="fVzCkQStNyUe_EZkDvuO-62" target="4t_6z5Arf-wFoB3xDvHp-5">
          <mxGeometry relative="1" as="geometry" />
        </mxCell>
        <mxCell id="4t_6z5Arf-wFoB3xDvHp-17" style="edgeStyle=orthogonalEdgeStyle;rounded=0;orthogonalLoop=1;jettySize=auto;html=1;exitX=0.5;exitY=1;exitDx=0;exitDy=0;entryX=0.5;entryY=0;entryDx=0;entryDy=0;" edge="1" parent="1" source="fVzCkQStNyUe_EZkDvuO-62" target="4t_6z5Arf-wFoB3xDvHp-13">
          <mxGeometry relative="1" as="geometry" />
        </mxCell>
        <mxCell id="4t_6z5Arf-wFoB3xDvHp-20" style="edgeStyle=orthogonalEdgeStyle;rounded=0;orthogonalLoop=1;jettySize=auto;html=1;exitX=0.5;exitY=1;exitDx=0;exitDy=0;" edge="1" parent="1" source="fVzCkQStNyUe_EZkDvuO-62" target="4t_6z5Arf-wFoB3xDvHp-19">
          <mxGeometry relative="1" as="geometry" />
        </mxCell>
        <mxCell id="4t_6z5Arf-wFoB3xDvHp-21" style="edgeStyle=orthogonalEdgeStyle;rounded=0;orthogonalLoop=1;jettySize=auto;html=1;exitX=0.5;exitY=1;exitDx=0;exitDy=0;entryX=0.5;entryY=0;entryDx=0;entryDy=0;" edge="1" parent="1" source="fVzCkQStNyUe_EZkDvuO-62" target="4t_6z5Arf-wFoB3xDvHp-18">
          <mxGeometry relative="1" as="geometry" />
        </mxCell>
        <mxCell id="fVzCkQStNyUe_EZkDvuO-62" value="EMPLOYER" style="whiteSpace=wrap;html=1;align=center;" parent="1" vertex="1">
          <mxGeometry x="590" y="380" width="220" height="40" as="geometry" />
        </mxCell>
        <mxCell id="4t_6z5Arf-wFoB3xDvHp-1" value="Aid" style="ellipse;whiteSpace=wrap;html=1;align=center;fontStyle=4;" vertex="1" parent="1">
          <mxGeometry x="40" y="440" width="100" height="40" as="geometry" />
        </mxCell>
        <mxCell id="4t_6z5Arf-wFoB3xDvHp-5" value="Eid" style="ellipse;whiteSpace=wrap;html=1;align=center;fontStyle=4;" vertex="1" parent="1">
          <mxGeometry x="540" y="440" width="100" height="40" as="geometry" />
        </mxCell>
        <mxCell id="4t_6z5Arf-wFoB3xDvHp-6" value="Resume" style="ellipse;whiteSpace=wrap;html=1;align=center;" vertex="1" parent="1">
          <mxGeometry x="140" y="470" width="100" height="40" as="geometry" />
        </mxCell>
        <mxCell id="4t_6z5Arf-wFoB3xDvHp-7" value="Status" style="ellipse;whiteSpace=wrap;html=1;align=center;" vertex="1" parent="1">
          <mxGeometry x="250" y="440" width="100" height="40" as="geometry" />
        </mxCell>
        <mxCell id="4t_6z5Arf-wFoB3xDvHp-11" value="Adate" style="ellipse;whiteSpace=wrap;html=1;align=center;" vertex="1" parent="1">
          <mxGeometry x="50" y="500" width="100" height="40" as="geometry" />
        </mxCell>
        <mxCell id="4t_6z5Arf-wFoB3xDvHp-13" value="Ename" style="ellipse;whiteSpace=wrap;html=1;align=center;" vertex="1" parent="1">
          <mxGeometry x="650" y="460" width="100" height="40" as="geometry" />
        </mxCell>
        <mxCell id="4t_6z5Arf-wFoB3xDvHp-18" value="Eaddress" style="ellipse;whiteSpace=wrap;html=1;align=center;" vertex="1" parent="1">
          <mxGeometry x="760" y="440" width="100" height="40" as="geometry" />
        </mxCell>
        <mxCell id="4t_6z5Arf-wFoB3xDvHp-19" value="Eemail" style="ellipse;whiteSpace=wrap;html=1;align=center;" vertex="1" parent="1">
          <mxGeometry x="590" y="500" width="100" height="40" as="geometry" />
        </mxCell>
        <mxCell id="4t_6z5Arf-wFoB3xDvHp-22" value="Cemail" style="ellipse;whiteSpace=wrap;html=1;align=center;" vertex="1" parent="1">
          <mxGeometry x="50" y="-100" width="100" height="40" as="geometry" />
        </mxCell>
        <mxCell id="4t_6z5Arf-wFoB3xDvHp-27" value="Jlocation" style="ellipse;shape=doubleEllipse;margin=3;whiteSpace=wrap;html=1;align=center;" vertex="1" parent="1">
          <mxGeometry x="780" y="-100" width="100" height="40" as="geometry" />
        </mxCell>
        <mxCell id="4t_6z5Arf-wFoB3xDvHp-28" value="Jpackage" style="ellipse;shape=doubleEllipse;margin=3;whiteSpace=wrap;html=1;align=center;" vertex="1" parent="1">
          <mxGeometry x="560" y="-100" width="100" height="40" as="geometry" />
        </mxCell>
        <mxCell id="4t_6z5Arf-wFoB3xDvHp-31" value="" style="edgeStyle=entityRelationEdgeStyle;fontSize=12;html=1;endArrow=ERoneToMany;rounded=0;exitX=0.75;exitY=0;exitDx=0;exitDy=0;entryX=0.75;entryY=1;entryDx=0;entryDy=0;" edge="1" parent="1" source="fVzCkQStNyUe_EZkDvuO-62" target="fVzCkQStNyUe_EZkDvuO-42">
          <mxGeometry width="100" height="100" relative="1" as="geometry">
            <mxPoint x="760" y="380" as="sourcePoint" />
            <mxPoint x="760" y="80" as="targetPoint" />
            <Array as="points">
              <mxPoint x="709" y="300" />
              <mxPoint x="719" y="140" />
              <mxPoint x="709" y="170" />
              <mxPoint x="719" y="300" />
            </Array>
          </mxGeometry>
        </mxCell>
        <mxCell id="4t_6z5Arf-wFoB3xDvHp-33" value="" style="edgeStyle=entityRelationEdgeStyle;fontSize=12;html=1;endArrow=ERmandOne;startArrow=ERmandOne;rounded=0;exitX=0.5;exitY=0;exitDx=0;exitDy=0;entryX=0.25;entryY=1;entryDx=0;entryDy=0;" edge="1" parent="1" source="fVzCkQStNyUe_EZkDvuO-61" target="fVzCkQStNyUe_EZkDvuO-42">
          <mxGeometry width="100" height="100" relative="1" as="geometry">
            <mxPoint x="210" y="330" as="sourcePoint" />
            <mxPoint x="310" y="230" as="targetPoint" />
          </mxGeometry>
        </mxCell>
        <mxCell id="4t_6z5Arf-wFoB3xDvHp-35" value="" style="edgeStyle=entityRelationEdgeStyle;fontSize=12;html=1;endArrow=ERoneToMany;rounded=0;entryX=0.25;entryY=0;entryDx=0;entryDy=0;exitX=0.25;exitY=1;exitDx=0;exitDy=0;" edge="1" parent="1" source="fVzCkQStNyUe_EZkDvuO-26" target="fVzCkQStNyUe_EZkDvuO-61">
          <mxGeometry width="100" height="100" relative="1" as="geometry">
            <mxPoint x="140" y="230" as="sourcePoint" />
            <mxPoint x="240" y="130" as="targetPoint" />
          </mxGeometry>
        </mxCell>
      </root>
    </mxGraphModel>
  </diagram>
</mxfile>
